<svg version="1.1" viewBox="0.0 0.0 960.0 540.0" fill="none" stroke="none" stroke-linecap="square" stroke-miterlimit="10" xmlns:xlink="http://www.w3.org/1999/xlink" xmlns="http://www.w3.org/2000/svg"><clipPath id="gf58bc7304e_0_3.0"><path d="m0 0l960.0 0l0 540.0l-960.0 0l0 -540.0z" clip-rule="nonzero"/></clipPath><g clip-path="url(#gf58bc7304e_0_3.0)"><defs><linearGradient id="gf58bc7304e_0_3.1" gradientUnits="userSpaceOnUse" gradientTransform="matrix(23.238126853633812 0.0 0.0 23.238126853633812 0.0 0.0)" spreadMethod="pad" x1="41.31141920545468" y1="23.23812685503607" x2="41.311673335740146" y2="2.7918307161143867E-9"><stop offset="0.0" stop-color="#9900ff"/><stop offset="0.73" stop-color="#6305ab"/><stop offset="1.0" stop-color="#2c0a56"/></linearGradient></defs><path fill="url(#gf58bc7304e_0_3.1)" d="m0 0l960.0 0l0 540.0l-960.0 0z" fill-rule="evenodd"/><path fill="#000000" fill-opacity="0.0" d="m185.90552 251.02362l588.18896 0l0 136.53543l-588.18896 0z" fill-rule="evenodd"/><path fill="#ffffff" d="m294.60324 297.53424q-2.78125 0 -4.78125 -0.921875q-1.984375 -0.9375 -3.0625 -2.671875q-1.078125 -1.75 -1.125 -4.140625l3.484375 0q0 2.125 1.4375 3.359375q1.453125 1.234375 4.046875 1.234375q2.4375 0 3.8125 -1.1875q1.375 -1.203125 1.375 -3.328125q0 -1.703125 -0.921875 -2.96875q-0.90625 -1.28125 -2.609375 -1.78125l-3.8125 -1.203125q-2.90625 -0.890625 -4.46875 -2.96875q-1.5625 -2.09375 -1.5625 -4.921875q0 -2.28125 1.015625 -3.953125q1.03125 -1.6875 2.875 -2.625q1.859375 -0.953125 4.375 -0.953125q3.71875 0 5.953125 2.0625q2.25 2.0625 2.28125 5.515625l-3.484375 0q0 -2.09375 -1.25 -3.265625q-1.25 -1.1875 -3.53125 -1.1875q-2.25 0 -3.515625 1.09375q-1.25 1.078125 -1.25 3.0q0 1.75 0.921875 3.03125q0.9375 1.265625 2.671875 1.8125l3.875 1.234375q2.8125 0.890625 4.359375 3.015625q1.546875 2.125 1.546875 4.984375q0 2.3125 -1.078125 4.0625q-1.078125 1.734375 -3.03125 2.703125q-1.953125 0.96875 -4.546875 0.96875zm23.037476 -0.078125q-2.546875 0 -4.40625 -0.96875q-1.859375 -0.96875 -2.890625 -2.796875q-1.015625 -1.84375 -1.015625 -4.359375l0 -5.640625q0 -2.546875 1.015625 -4.359375q1.03125 -1.828125 2.890625 -2.78125q1.859375 -0.96875 4.40625 -0.96875q2.546875 0 4.40625 0.96875q1.859375 0.953125 2.875 2.78125q1.03125 1.8125 1.03125 4.328125l0 5.671875q0 2.515625 -1.03125 4.359375q-1.015625 1.828125 -2.875 2.796875q-1.859375 0.96875 -4.40625 0.96875zm0 -3.09375q2.28125 0 3.546875 -1.265625q1.28125 -1.28125 1.28125 -3.765625l0 -5.640625q0 -2.46875 -1.28125 -3.75q-1.265625 -1.28125 -3.546875 -1.28125q-2.234375 0 -3.53125 1.28125q-1.296875 1.28125 -1.296875 3.75l0 5.640625q0 2.484375 1.296875 3.765625q1.296875 1.265625 3.53125 1.265625zm20.100006 2.78125l0 -15.96875l-6.1875 0l0 -3.171875l6.1875 0l0 -3.671875q0 -2.5 1.578125 -3.953125q1.59375 -1.453125 4.375 -1.453125l6.234375 0l0 3.171875l-6.234375 0q-1.1875 0 -1.828125 0.5625q-0.640625 0.5625 -0.640625 1.671875l0 3.671875l8.703125 0l0 3.171875l-8.703125 0l0 15.96875l-3.484375 0zm28.6156 0q-2.75 0 -4.28125 -1.46875q-1.515625 -1.46875 -1.515625 -4.140625l0 -12.484375l-6.0 0l0 -3.171875l6.0 0l0 -5.984375l3.46875 0l0 5.984375l8.5 0l0 3.171875l-8.5 0l0 12.484375q0 2.4375 2.328125 2.4375l5.796875 0l0 3.171875l-5.796875 0zm14.021881 0l-3.390625 -21.265625l3.09375 0l2.125 15.078125q0.109375 0.859375 0.234375 1.84375q0.140625 0.984375 0.21875 1.640625q0.078125 -0.65625 0.25 -1.640625q0.171875 -0.984375 0.296875 -1.84375l2.359375 -15.078125l3.328125 0l2.34375 15.078125q0.125 0.859375 0.296875 1.84375q0.171875 0.984375 0.25 1.640625q0.078125 -0.65625 0.25 -1.640625q0.171875 -0.984375 0.296875 -1.84375l2.203125 -15.078125l2.9375 0l-3.5625 21.265625l-3.828125 0l-2.28125 -14.6875q-0.15625 -1.078125 -0.34375 -2.15625q-0.1875 -1.09375 -0.265625 -1.71875q-0.078125 0.625 -0.234375 1.71875q-0.15625 1.078125 -0.34375 2.15625l-2.40625 14.6875l-3.828125 0zm28.1781 0.390625q-3.359375 0 -5.296875 -1.71875q-1.921875 -1.71875 -1.921875 -4.65625q0 -2.984375 1.921875 -4.6875q1.9375 -1.703125 5.21875 -1.703125l6.578125 0l0 -2.125q0 -1.96875 -1.1875 -3.03125q-1.171875 -1.0625 -3.328125 -1.0625q-1.90625 0 -3.1875 0.796875q-1.265625 0.78125 -1.453125 2.140625l-3.484375 0q0.34375 -2.75 2.578125 -4.359375q2.25 -1.625 5.625 -1.625q3.671875 0 5.796875 1.890625q2.125 1.890625 2.125 5.140625l0 14.609375l-3.40625 0l0 -4.0625l-0.578125 0l0.578125 -0.578125q0 2.328125 -1.796875 3.6875q-1.796875 1.34375 -4.78125 1.34375zm0.859375 -2.75q2.46875 0 4.046875 -1.234375q1.59375 -1.234375 1.59375 -3.171875l0 -3.015625l-6.5 0q-1.734375 0 -2.75 0.96875q-1.0 0.96875 -1.0 2.625q0 1.78125 1.21875 2.8125q1.21875 1.015625 3.390625 1.015625zm16.896881 2.359375l0 -21.265625l3.390625 0l0 4.0625l0.8125 0l-1.109375 2.515625q0 -3.4375 1.484375 -5.1875q1.484375 -1.765625 4.421875 -1.765625q3.359375 0 5.34375 2.109375q2.0 2.09375 2.0 5.6875l0 1.28125l-3.484375 0l0 -0.96875q0 -2.515625 -1.21875 -3.84375q-1.203125 -1.328125 -3.453125 -1.328125q-2.203125 0 -3.46875 1.359375q-1.25 1.34375 -1.25 3.8125l0 13.53125l-3.46875 0zm30.4906 0.390625q-2.515625 0 -4.390625 -1.0q-1.875 -1.015625 -2.90625 -2.84375q-1.015625 -1.84375 -1.015625 -4.28125l0 -5.796875q0 -2.46875 1.015625 -4.28125q1.03125 -1.828125 2.90625 -2.828125q1.875 -1.0 4.390625 -1.0q2.515625 0 4.390625 1.0q1.875 1.0 2.890625 2.828125q1.03125 1.8125 1.03125 4.28125l0 3.75l-13.21875 0l0 2.046875q0 2.515625 1.265625 3.859375q1.28125 1.328125 3.640625 1.328125q2.015625 0 3.25 -0.71875q1.234375 -0.71875 1.515625 -2.140625l3.46875 0q-0.34375 2.65625 -2.609375 4.234375q-2.265625 1.5625 -5.625 1.5625zm4.90625 -12.484375l0 -1.4375q0 -2.515625 -1.25 -3.859375q-1.25 -1.359375 -3.65625 -1.359375q-2.359375 0 -3.640625 1.359375q-1.265625 1.34375 -1.265625 3.859375l0 1.125l10.09375 0l-0.28125 0.3125zm33.746887 12.09375l0 -28.21875l16.234375 0l0 3.171875l-12.78125 0l0 8.734375l11.4375 0l0 3.125l-11.4375 0l0 10.015625l12.78125 0l0 3.171875l-16.234375 0zm22.89685 0l0 -21.265625l3.46875 0l0 4.0625l0.734375 0l-0.734375 0.8125q0 -2.515625 1.5 -3.875q1.515625 -1.375 4.1875 -1.375q3.203125 0 5.09375 1.96875q1.90625 1.96875 1.90625 5.375l0 14.296875l-3.484375 0l0 -13.921875q0 -2.28125 -1.21875 -3.484375q-1.21875 -1.21875 -3.296875 -1.21875q-2.171875 0 -3.4375 1.3125q-1.25 1.3125 -1.25 3.78125l0 13.53125l-3.46875 0zm25.849976 6.953125l0 -3.171875l6.765625 0q1.625 0 2.375 -0.734375q0.765625 -0.734375 0.765625 -2.28125l0 -2.703125l0.078125 -3.859375l-0.703125 0l0.65625 -0.578125q0 2.3125 -1.546875 3.671875q-1.546875 1.34375 -4.140625 1.34375q-3.28125 0 -5.171875 -2.140625q-1.890625 -2.140625 -1.890625 -5.78125l0 -4.484375q0 -3.625 1.890625 -5.75q1.890625 -2.125 5.171875 -2.125q2.59375 0 4.140625 1.359375q1.546875 1.34375 1.546875 3.65625l-0.65625 -0.578125l0.65625 0l0 -4.0625l3.4375 0l0 22.03125q0 2.875 -1.765625 4.53125q-1.75 1.65625 -4.875 1.65625l-6.734375 0zm5.296875 -11.328125q2.171875 0 3.40625 -1.34375q1.234375 -1.359375 1.234375 -3.75l0 -4.0625q0 -2.390625 -1.234375 -3.734375q-1.234375 -1.359375 -3.40625 -1.359375q-2.203125 0 -3.421875 1.3125q-1.21875 1.3125 -1.21875 3.78125l0 4.0625q0 2.46875 1.21875 3.78125q1.21875 1.3125 3.421875 1.3125zm14.959351 4.375l0 -3.171875l7.546875 0l0 -14.921875l-6.578125 0l0 -3.171875l10.046875 0l0 18.09375l7.15625 0l0 3.171875l-18.171875 0zm8.890625 -25.09375q-1.265625 0 -2.0 -0.65625q-0.734375 -0.65625 -0.734375 -1.765625q0 -1.171875 0.734375 -1.84375q0.734375 -0.671875 2.0 -0.671875q1.28125 0 2.015625 0.671875q0.734375 0.671875 0.734375 1.84375q0 1.109375 -0.734375 1.765625q-0.734375 0.65625 -2.015625 0.65625zm14.584351 25.09375l0 -21.265625l3.46875 0l0 4.0625l0.734375 0l-0.734375 0.8125q0 -2.515625 1.5 -3.875q1.515625 -1.375 4.1875 -1.375q3.203125 0 5.09375 1.96875q1.90625 1.96875 1.90625 5.375l0 14.296875l-3.484375 0l0 -13.921875q0 -2.28125 -1.21875 -3.484375q-1.21875 -1.21875 -3.296875 -1.21875q-2.171875 0 -3.4375 1.3125q-1.25 1.3125 -1.25 3.78125l0 13.53125l-3.46875 0zm31.224976 0.390625q-2.515625 0 -4.390625 -1.0q-1.875 -1.015625 -2.90625 -2.84375q-1.015625 -1.84375 -1.015625 -4.28125l0 -5.796875q0 -2.46875 1.015625 -4.28125q1.03125 -1.828125 2.90625 -2.828125q1.875 -1.0 4.390625 -1.0q2.515625 0 4.390625 1.0q1.875 1.0 2.890625 2.828125q1.03125 1.8125 1.03125 4.28125l0 3.75l-13.21875 0l0 2.046875q0 2.515625 1.265625 3.859375q1.28125 1.328125 3.640625 1.328125q2.015625 0 3.25 -0.71875q1.234375 -0.71875 1.515625 -2.140625l3.46875 0q-0.34375 2.65625 -2.609375 4.234375q-2.265625 1.5625 -5.625 1.5625zm4.90625 -12.484375l0 -1.4375q0 -2.515625 -1.25 -3.859375q-1.25 -1.359375 -3.65625 -1.359375q-2.359375 0 -3.640625 1.359375q-1.265625 1.34375 -1.265625 3.859375l0 1.125l10.09375 0l-0.28125 0.3125zm18.287476 12.484375q-2.515625 0 -4.390625 -1.0q-1.875 -1.015625 -2.90625 -2.84375q-1.015625 -1.84375 -1.015625 -4.28125l0 -5.796875q0 -2.46875 1.015625 -4.28125q1.03125 -1.828125 2.90625 -2.828125q1.875 -1.0 4.390625 -1.0q2.515625 0 4.390625 1.0q1.875 1.0 2.890625 2.828125q1.03125 1.8125 1.03125 4.28125l0 3.75l-13.21875 0l0 2.046875q0 2.515625 1.265625 3.859375q1.28125 1.328125 3.640625 1.328125q2.015625 0 3.25 -0.71875q1.234375 -0.71875 1.515625 -2.140625l3.46875 0q-0.34375 2.65625 -2.609375 4.234375q-2.265625 1.5625 -5.625 1.5625zm4.90625 -12.484375l0 -1.4375q0 -2.515625 -1.25 -3.859375q-1.25 -1.359375 -3.65625 -1.359375q-2.359375 0 -3.640625 1.359375q-1.265625 1.34375 -1.265625 3.859375l0 1.125l10.09375 0l-0.28125 0.3125zm10.990601 12.09375l0 -21.265625l3.390625 0l0 4.0625l0.8125 0l-1.109375 2.515625q0 -3.4375 1.484375 -5.1875q1.484375 -1.765625 4.421875 -1.765625q3.359375 0 5.34375 2.109375q2.0 2.09375 2.0 5.6875l0 1.28125l-3.484375 0l0 -0.96875q0 -2.515625 -1.21875 -3.84375q-1.203125 -1.328125 -3.453125 -1.328125q-2.203125 0 -3.46875 1.359375q-1.25 1.34375 -1.25 3.8125l0 13.53125l-3.46875 0z" fill-rule="nonzero"/><path fill="#ffffff" d="m297.23135 366.74362l0 -28.21875l5.921875 0l7.84375 22.8125q-0.125 -1.25 -0.265625 -2.921875q-0.125 -1.6875 -0.203125 -3.4375q-0.078125 -1.765625 -0.078125 -3.078125l0 -13.375l4.40625 0l0 28.21875l-5.90625 0l-7.78125 -22.8125q0.078125 1.125 0.1875 2.71875q0.125 1.578125 0.203125 3.25q0.078125 1.65625 0.078125 3.046875l0 13.796875l-4.40625 0zm32.0531 0.390625q-2.71875 0 -4.734375 -1.046875q-2.0 -1.046875 -3.109375 -2.921875q-1.09375 -1.875 -1.09375 -4.390625l0 -5.328125q0 -2.515625 1.09375 -4.390625q1.109375 -1.875 3.109375 -2.90625q2.015625 -1.046875 4.734375 -1.046875q2.65625 0 4.640625 1.046875q2.0 1.03125 3.09375 2.90625q1.109375 1.875 1.109375 4.390625l0 3.828125l-13.09375 0l0 1.5q0 2.25 1.078125 3.390625q1.078125 1.140625 3.203125 1.140625q1.625 0 2.625 -0.5625q1.015625 -0.5625 1.28125 -1.640625l4.75 0q-0.53125 2.734375 -2.921875 4.390625q-2.375 1.640625 -5.765625 1.640625zm4.171875 -12.5625l0 -1.171875q0 -2.203125 -1.046875 -3.375q-1.046875 -1.171875 -3.125 -1.171875q-2.09375 0 -3.171875 1.203125q-1.078125 1.1875 -1.078125 3.390625l0 0.8125l8.765625 -0.078125l-0.34375 0.390625zm11.396881 12.171875l-3.25 -21.265625l4.03125 0l1.78125 13.03125q0.140625 1.125 0.28125 2.484375q0.140625 1.34375 0.21875 2.234375q0.109375 -0.890625 0.296875 -2.234375q0.203125 -1.359375 0.359375 -2.484375l2.0 -13.03125l3.75 0l1.984375 13.03125q0.140625 1.125 0.328125 2.5q0.203125 1.359375 0.328125 2.25q0.078125 -0.921875 0.25 -2.296875q0.171875 -1.375 0.28125 -2.453125l1.90625 -13.03125l3.859375 0l-3.328125 21.265625l-4.984375 0l-1.859375 -13.109375q-0.15625 -1.078125 -0.34375 -2.40625q-0.1875 -1.34375 -0.3125 -2.1875q-0.109375 0.84375 -0.28125 2.1875q-0.171875 1.328125 -0.375 2.40625l-1.9375 13.109375l-4.984375 0zm29.95935 0.34375q-2.4375 0 -4.25 -0.765625q-1.8125 -0.78125 -2.84375 -2.140625q-1.015625 -1.375 -1.09375 -3.234375l4.828125 0q0.078125 1.0 0.984375 1.625q0.90625 0.609375 2.375 0.609375l1.703125 0q1.78125 0 2.671875 -0.6875q0.890625 -0.703125 0.890625 -1.890625q0 -1.125 -0.796875 -1.765625q-0.796875 -0.640625 -2.453125 -0.828125l-2.625 -0.390625q-3.640625 -0.5 -5.34375 -1.921875q-1.703125 -1.4375 -1.703125 -4.296875q0 -2.984375 2.015625 -4.625q2.015625 -1.640625 5.921875 -1.640625l1.46875 0q3.546875 0 5.671875 1.59375q2.125 1.578125 2.28125 4.25l-4.828125 0q-0.109375 -0.859375 -0.953125 -1.390625q-0.828125 -0.546875 -2.171875 -0.546875l-1.46875 0q-1.671875 0 -2.421875 0.609375q-0.75 0.59375 -0.75 1.75q0 1.078125 0.65625 1.609375q0.65625 0.515625 2.125 0.75l2.734375 0.375q3.796875 0.546875 5.59375 2.046875q1.796875 1.484375 1.796875 4.375q0 3.09375 -2.109375 4.8125q-2.109375 1.71875 -6.203125 1.71875l-1.703125 0zm24.162506 0.046875q-2.703125 0 -4.734375 -1.015625q-2.03125 -1.03125 -3.140625 -2.90625q-1.09375 -1.875 -1.09375 -4.4375l0 -12.28125q0 -2.59375 1.09375 -4.453125q1.109375 -1.859375 3.140625 -2.875q2.03125 -1.03125 4.734375 -1.03125q2.75 0 4.734375 1.03125q2.0 1.015625 3.109375 2.875q1.125 1.859375 1.125 4.453125l-4.875 0q0 -2.015625 -1.0625 -3.0625q-1.0625 -1.046875 -3.03125 -1.046875q-1.96875 0 -3.0625 1.046875q-1.078125 1.046875 -1.078125 3.015625l0 12.328125q0 1.984375 1.078125 3.046875q1.09375 1.0625 3.0625 1.0625q1.96875 0 3.03125 -1.0625q1.0625 -1.0625 1.0625 -3.046875l4.875 0q0 2.515625 -1.125 4.421875q-1.109375 1.890625 -3.109375 2.921875q-1.984375 1.015625 -4.734375 1.015625zm15.084351 -0.390625l0 -21.265625l4.546875 0l0 4.0625l1.203125 0l-1.421875 2.46875q0 -3.4375 1.546875 -5.171875q1.546875 -1.734375 4.5625 -1.734375q3.4375 0 5.40625 2.125q1.96875 2.125 1.96875 5.875l0 1.546875l-5.0625 0l0 -1.203125q0 -2.046875 -1.0625 -3.171875q-1.0625 -1.125 -2.921875 -1.125q-1.890625 0 -2.921875 1.125q-1.015625 1.125 -1.015625 3.171875l0 13.296875l-4.828125 0zm31.193756 0.390625q-2.71875 0 -4.734375 -1.046875q-2.0 -1.046875 -3.109375 -2.921875q-1.09375 -1.875 -1.09375 -4.390625l0 -5.328125q0 -2.515625 1.09375 -4.390625q1.109375 -1.875 3.109375 -2.90625q2.015625 -1.046875 4.734375 -1.046875q2.65625 0 4.640625 1.046875q2.0 1.03125 3.09375 2.90625q1.109375 1.875 1.109375 4.390625l0 3.828125l-13.09375 0l0 1.5q0 2.25 1.078125 3.390625q1.078125 1.140625 3.203125 1.140625q1.625 0 2.625 -0.5625q1.015625 -0.5625 1.28125 -1.640625l4.75 0q-0.53125 2.734375 -2.921875 4.390625q-2.375 1.640625 -5.765625 1.640625zm4.171875 -12.5625l0 -1.171875q0 -2.203125 -1.046875 -3.375q-1.046875 -1.171875 -3.125 -1.171875q-2.09375 0 -3.171875 1.203125q-1.078125 1.1875 -1.078125 3.390625l0 0.8125l8.765625 -0.078125l-0.34375 0.390625zm17.162476 12.5625q-3.171875 0 -5.125 -2.203125q-1.953125 -2.203125 -1.953125 -5.921875l0 -5.75q0 -3.75 1.9375 -5.953125q1.9375 -2.203125 5.140625 -2.203125q2.625 0 4.171875 1.484375q1.546875 1.484375 1.546875 4.078125l-1.078125 -1.125l1.125 0l-0.15625 -5.0625l0 -5.953125l4.828125 0l0 28.21875l-4.71875 0l0 -4.0625l-1.078125 0l1.078125 -1.125q0 2.59375 -1.546875 4.09375q-1.546875 1.484375 -4.171875 1.484375zm1.703125 -4.171875q1.859375 0 2.875 -1.09375q1.03125 -1.109375 1.03125 -3.09375l0 -5.328125q0 -1.96875 -1.03125 -3.0625q-1.015625 -1.109375 -2.875 -1.109375q-1.859375 0 -2.90625 1.078125q-1.046875 1.078125 -1.046875 3.09375l0 5.328125q0 2.015625 1.046875 3.109375q1.046875 1.078125 2.90625 1.078125zm14.021881 8.03125l13.53125 -36.328125l5.03125 0l-13.53125 36.328125l-5.03125 0zm24.396881 -4.25l-2.890625 -28.21875l4.171875 0l1.703125 19.71875q0.078125 0.65625 0.125 1.609375q0.0625 0.9375 0.109375 1.90625q0.0625 0.96875 0.0625 1.703125q0.078125 -0.734375 0.15625 -1.703125q0.078125 -0.96875 0.171875 -1.90625q0.109375 -0.953125 0.1875 -1.609375l2.3125 -19.71875l4.0625 0l2.15625 19.71875q0.125 0.65625 0.21875 1.609375q0.09375 0.9375 0.203125 1.90625q0.125 0.96875 0.203125 1.703125q0.03125 -0.734375 0.0625 -1.703125q0.046875 -0.96875 0.109375 -1.90625q0.0625 -0.953125 0.140625 -1.609375l1.65625 -19.71875l4.140625 0l-3.0625 28.21875l-5.328125 0l-2.09375 -19.796875q-0.078125 -0.734375 -0.171875 -1.71875q-0.09375 -0.984375 -0.171875 -1.96875q-0.078125 -0.984375 -0.109375 -1.6875q-0.046875 0.703125 -0.140625 1.6875q-0.09375 0.984375 -0.171875 1.96875q-0.078125 0.984375 -0.15625 1.71875l-2.28125 19.796875l-5.375 0zm31.318726 0.390625q-2.71875 0 -4.734375 -1.046875q-2.0 -1.046875 -3.109375 -2.921875q-1.09375 -1.875 -1.09375 -4.390625l0 -5.328125q0 -2.515625 1.09375 -4.390625q1.109375 -1.875 3.109375 -2.90625q2.015625 -1.046875 4.734375 -1.046875q2.65625 0 4.640625 1.046875q2.0 1.03125 3.09375 2.90625q1.109375 1.875 1.109375 4.390625l0 3.828125l-13.09375 0l0 1.5q0 2.25 1.078125 3.390625q1.078125 1.140625 3.203125 1.140625q1.625 0 2.625 -0.5625q1.015625 -0.5625 1.28125 -1.640625l4.75 0q-0.53125 2.734375 -2.921875 4.390625q-2.375 1.640625 -5.765625 1.640625zm4.171875 -12.5625l0 -1.171875q0 -2.203125 -1.046875 -3.375q-1.046875 -1.171875 -3.125 -1.171875q-2.09375 0 -3.171875 1.203125q-1.078125 1.1875 -1.078125 3.390625l0 0.8125l8.765625 -0.078125l-0.34375 0.390625zm22.224976 12.171875q-2.09375 0 -3.65625 -0.84375q-1.5625 -0.859375 -2.453125 -2.421875q-0.890625 -1.5625 -0.890625 -3.609375l0 -16.96875l-6.796875 0l0 -4.375l11.625 0l0 21.34375q0 1.15625 0.671875 1.828125q0.6875 0.671875 1.84375 0.671875l6.421875 0l0 4.375l-6.765625 0zm20.068726 0.390625q-2.71875 0 -4.75 -1.015625q-2.015625 -1.03125 -3.140625 -2.90625q-1.125 -1.875 -1.125 -4.4375l0 -5.328125q0 -2.59375 1.125 -4.4375q1.125 -1.859375 3.140625 -2.875q2.03125 -1.03125 4.75 -1.03125q4.015625 0 6.40625 2.0625q2.40625 2.0625 2.515625 5.625l-4.828125 0q-0.125 -1.65625 -1.1875 -2.5625q-1.0625 -0.921875 -2.90625 -0.921875q-1.9375 0 -3.0625 1.0625q-1.125 1.0625 -1.125 3.03125l0 5.375q0 1.984375 1.125 3.0625q1.125 1.078125 3.0625 1.078125q1.84375 0 2.90625 -0.90625q1.0625 -0.90625 1.1875 -2.578125l4.828125 0q-0.109375 3.5625 -2.515625 5.640625q-2.390625 2.0625 -6.40625 2.0625zm23.068726 -0.046875q-2.703125 0 -4.703125 -1.015625q-1.984375 -1.03125 -3.09375 -2.90625q-1.09375 -1.875 -1.09375 -4.421875l0 -5.265625q0 -2.546875 1.09375 -4.421875q1.109375 -1.875 3.09375 -2.890625q2.0 -1.03125 4.703125 -1.03125q2.75 0 4.71875 1.03125q1.96875 1.015625 3.0625 2.890625q1.109375 1.875 1.109375 4.390625l0 5.296875q0 2.546875 -1.109375 4.421875q-1.09375 1.875 -3.0625 2.90625q-1.96875 1.015625 -4.71875 1.015625zm0 -4.203125q1.9375 0 3.0 -1.0625q1.0625 -1.0625 1.0625 -3.078125l0 -5.265625q0 -2.046875 -1.0625 -3.078125q-1.0625 -1.046875 -3.0 -1.046875q-1.890625 0 -2.984375 1.046875q-1.078125 1.03125 -1.078125 3.078125l0 5.265625q0 2.015625 1.078125 3.078125q1.09375 1.0625 2.984375 1.0625zm13.615601 3.859375l0 -21.265625l3.9375 0l0 2.859375l0.8125 0l-0.65625 0.703125q0 -1.78125 1.0 -2.859375q1.015625 -1.078125 2.59375 -1.078125q1.703125 0 2.640625 1.390625q0.953125 1.390625 0.953125 3.75l-0.84375 -1.90625l1.3125 0l-0.5 0.703125q0 -1.78125 1.0 -2.859375q1.0 -1.078125 2.671875 -1.078125q1.96875 0 3.125 1.46875q1.15625 1.46875 1.15625 3.96875l0 16.203125l-4.25 0l0 -16.0q0 -1.046875 -0.46875 -1.640625q-0.453125 -0.609375 -1.34375 -0.609375q-0.859375 0 -1.34375 0.578125q-0.46875 0.578125 -0.46875 1.671875l0 16.0l-3.484375 0l0 -16.0q0 -1.09375 -0.46875 -1.671875q-0.46875 -0.578125 -1.34375 -0.578125q-0.890625 0 -1.34375 0.578125q-0.4375 0.578125 -0.4375 1.671875l0 16.0l-4.25 0zm32.818726 0.390625q-2.71875 0 -4.734375 -1.046875q-2.0 -1.046875 -3.109375 -2.921875q-1.09375 -1.875 -1.09375 -4.390625l0 -5.328125q0 -2.515625 1.09375 -4.390625q1.109375 -1.875 3.109375 -2.90625q2.015625 -1.046875 4.734375 -1.046875q2.65625 0 4.640625 1.046875q2.0 1.03125 3.09375 2.90625q1.109375 1.875 1.109375 4.390625l0 3.828125l-13.09375 0l0 1.5q0 2.25 1.078125 3.390625q1.078125 1.140625 3.203125 1.140625q1.625 0 2.625 -0.5625q1.015625 -0.5625 1.28125 -1.640625l4.75 0q-0.53125 2.734375 -2.921875 4.390625q-2.375 1.640625 -5.765625 1.640625zm4.171875 -12.5625l0 -1.171875q0 -2.203125 -1.046875 -3.375q-1.046875 -1.171875 -3.125 -1.171875q-2.09375 0 -3.171875 1.203125q-1.078125 1.1875 -1.078125 3.390625l0 0.8125l8.765625 -0.078125l-0.34375 0.390625z" fill-rule="nonzero"/><path fill="#000000" fill-opacity="0.0" d="m185.90552 152.44095l588.18896 0l0 98.58267l-588.18896 0z" fill-rule="evenodd"/><path fill="#ffffff" d="m344.4469 235.84845q-5.875 0 -10.125 -2.28125q-4.25 -2.28125 -6.609375 -6.53125q-2.34375 -4.25 -2.34375 -10.125l0 -22.140625q0 -5.890625 2.21875 -10.125q2.21875 -4.25 6.328125 -6.53125q4.125 -2.296875 9.875 -2.296875q5.21875 0 8.96875 2.0q3.765625 1.984375 5.796875 5.546875q2.03125 3.5625 2.03125 8.265625l0 28.28125l-6.21875 0l0.390625 -3.59375l-1.953125 0l0.984375 -1.6875q0 2.609375 -1.9375 4.28125q-1.921875 1.65625 -5.125 1.65625q-4.109375 0 -6.375 -2.734375q-2.25 -2.75 -2.25 -7.78125l0 -7.453125q0 -5.03125 2.25 -7.765625q2.265625 -2.75 6.375 -2.75q3.203125 0 5.125 1.640625q1.9375 1.625 1.9375 4.3125l-0.921875 -1.3125l1.96875 0l-1.046875 -4.4375l0 -0.65625q0 -2.9375 -1.1875 -5.15625q-1.171875 -2.234375 -3.390625 -3.5q-2.21875 -1.28125 -5.421875 -1.28125q-5.546875 0 -8.59375 3.4375q-3.03125 3.421875 -3.03125 9.640625l0 22.140625q0 6.078125 3.234375 9.40625q3.234375 3.328125 9.046875 3.328125l4.5625 0l0 6.203125l-4.5625 0zm4.890625 -20.25q2.359375 0 3.40625 -1.359375q1.046875 -1.375 1.046875 -4.453125l0 -7.1875q0 -2.734375 -1.109375 -4.140625q-1.109375 -1.40625 -3.34375 -1.40625q-2.21875 0 -3.328125 1.40625q-1.109375 1.40625 -1.109375 4.140625l0 7.453125q0 2.9375 1.109375 4.25q1.109375 1.296875 3.328125 1.296875zm31.290619 9.15625q-4.109375 0 -7.1875 -1.3125q-3.0625 -1.3125 -4.796875 -3.625q-1.734375 -2.3125 -1.859375 -5.453125l8.171875 0q0.125 1.703125 1.65625 2.75q1.546875 1.03125 4.015625 1.03125l2.875 0q3.015625 0 4.515625 -1.171875q1.5 -1.171875 1.5 -3.203125q0 -1.890625 -1.34375 -2.96875q-1.328125 -1.078125 -4.140625 -1.40625l-4.4375 -0.65625q-6.140625 -0.84375 -9.015625 -3.25q-2.875 -2.421875 -2.875 -7.265625q0 -5.03125 3.390625 -7.796875q3.390625 -2.78125 10.0 -2.78125l2.484375 0q6.0 0 9.59375 2.6875q3.59375 2.671875 3.859375 7.171875l-8.171875 0q-0.1875 -1.4375 -1.59375 -2.34375q-1.40625 -0.921875 -3.6875 -0.921875l-2.484375 0q-2.8125 0 -4.09375 1.015625q-1.265625 1.015625 -1.265625 2.96875q0 1.828125 1.109375 2.71875q1.109375 0.875 3.59375 1.265625l4.640625 0.65625q6.40625 0.921875 9.4375 3.4375q3.03125 2.5 3.03125 7.40625q0 5.234375 -3.5625 8.140625q-3.546875 2.90625 -10.484375 2.90625l-2.875 0zm26.009369 -0.59375l0 -47.6875l8.171875 0l0 11.75l-0.203125 6.859375l2.21875 0l-2.21875 1.90625q0 -4.453125 2.578125 -6.921875q2.578125 -2.484375 7.09375 -2.484375q5.28125 0 8.453125 3.53125q3.171875 3.515625 3.171875 9.46875l0 23.578125l-8.171875 0l0 -22.734375q0 -3.265625 -1.703125 -5.03125q-1.6875 -1.765625 -4.765625 -1.765625q-3.0 0 -4.734375 1.828125q-1.71875 1.828125 -1.71875 5.234375l0 22.46875l-8.171875 0zm53.75937 0.65625q-6.859375 0 -10.78125 -3.8125q-3.90625 -3.828125 -3.90625 -10.4375l0 -22.34375l8.15625 0l0 22.28125q0 3.46875 1.703125 5.328125q1.703125 1.859375 4.828125 1.859375q3.078125 0 4.796875 -1.859375q1.734375 -1.859375 1.734375 -5.328125l0 -22.28125l8.171875 0l0 22.34375q0 6.609375 -3.984375 10.4375q-3.984375 3.8125 -10.71875 3.8125zm24.634369 -0.65625l0 -35.9375l7.96875 0l0 6.859375l2.21875 0l-2.21875 1.90625q0 -4.453125 2.578125 -6.921875q2.578125 -2.484375 7.09375 -2.484375q5.28125 0 8.453125 3.53125q3.171875 3.515625 3.171875 9.46875l0 23.578125l-8.171875 0l0 -22.734375q0 -3.265625 -1.703125 -5.03125q-1.6875 -1.765625 -4.765625 -1.765625q-3.0 0 -4.734375 1.828125q-1.71875 1.828125 -1.71875 5.234375l0 22.46875l-8.171875 0zm39.524963 11.765625l0 -7.578125l9.59375 0q3.265625 0 5.03125 -1.765625q1.765625 -1.765625 1.765625 -4.96875l0 -25.8125l-14.4375 0l0 -7.578125l22.609375 0l0 33.578125q0 6.546875 -3.921875 10.328125q-3.921875 3.796875 -10.578125 3.796875l-10.0625 0zm20.171875 -53.703125q-2.484375 0 -3.921875 -1.265625q-1.4375 -1.28125 -1.4375 -3.4375q0 -2.15625 1.4375 -3.421875q1.4375 -1.28125 3.921875 -1.28125q2.484375 0 3.921875 1.28125q1.4375 1.265625 1.4375 3.421875q0 2.15625 -1.4375 3.4375q-1.4375 1.265625 -3.921875 1.265625zm18.6344 41.9375l0 -7.453125l12.546875 0l0 -21.09375l-10.921875 0l0 -7.390625l18.75 0l0 28.484375l11.109375 0l0 7.453125l-31.484375 0zm15.796875 -41.9375q-2.484375 0 -3.921875 -1.265625q-1.4375 -1.28125 -1.4375 -3.4375q0 -2.15625 1.4375 -3.421875q1.4375 -1.28125 3.921875 -1.28125q2.484375 0 3.921875 1.28125q1.4375 1.265625 1.4375 3.421875q0 2.15625 -1.4375 3.4375q-1.4375 1.265625 -3.921875 1.265625zm34.962463 42.59375q-5.359375 0 -8.65625 -3.71875q-3.296875 -3.734375 -3.296875 -10.0l0 -9.734375q0 -6.34375 3.265625 -10.0625q3.265625 -3.71875 8.6875 -3.71875q4.4375 0 7.046875 2.515625q2.625 2.515625 2.625 6.890625l-1.828125 -1.90625l1.890625 0l-0.265625 -8.546875l0 -10.0625l8.171875 0l0 47.6875l-7.96875 0l0 -6.859375l-1.828125 0l1.828125 -1.890625q0 4.375 -2.625 6.890625q-2.609375 2.515625 -7.046875 2.515625zm2.875 -7.0625q3.125 0 4.859375 -1.859375q1.734375 -1.859375 1.734375 -5.1875l0 -9.015625q0 -3.328125 -1.734375 -5.1875q-1.734375 -1.875 -4.859375 -1.875q-3.140625 0 -4.90625 1.828125q-1.765625 1.828125 -1.765625 5.234375l0 9.015625q0 3.390625 1.765625 5.21875q1.765625 1.828125 4.90625 1.828125z" fill-rule="nonzero"/></g></svg>